<?xml version="1.0" encoding="UTF-8"?>
<svg id="Layer_2" data-name="Layer 2" xmlns="http://www.w3.org/2000/svg" viewBox="0 0 155.12 155.12">
  <defs>
    <style>
      .cls-1 {
        fill: #f39c12;
      }

      .cls-2 {
        fill: #2563eb;
      }
    </style>
  </defs>
  <g id="Layer_1-2" data-name="Layer 1">
    <g>
      <rect class="cls-2" width="155.12" height="155.12" rx="47.26" ry="47.26"/>
      <path class="cls-1" d="M129.48,101.15l-1.35,1.35c-9.41,9.41-24.51,9.81-34.4,1.13-.08-.07-.15-.14-.23-.21-.09-.08-.17-.16-.26-.24-.08-.08-.17-.15-.25-.23-.16-.15-.31-.3-.47-.45l-6.73-6.73,8.82-8.82,6.73,6.73c.08.08.16.16.24.23,4.98,4.76,12.88,4.72,17.75-.15.33-.33.64-.67.92-1.03,4.04-5.01,3.69-12.32-.95-16.96-4.91-4.91-12.97-4.99-17.96,0l-25.73,25.73c-5.12,4.86-11.97,7.82-19.79,8.32-.2.01-.39.02-.59.03-.39.02-.79.03-1.19.04h0c-.19,0-.38,0-.57,0-.28,0-.57,0-.85,0-.07,0-.15,0-.22,0-.11,0-.22,0-.33-.01-.31-.01-.62-.03-.93-.05-.46-.03-.92-.07-1.38-.11-14.84-1.5-27.4-11.94-29.27-27.68h0c-.02-.13-.03-.27-.04-.4-.01-.13-.03-.27-.04-.4-.03-.27-.05-.54-.07-.81,0-.14-.02-.27-.03-.41-.05-.8-.07-1.61-.06-2.44.19-19.5,14.99-31.75,32.08-32.32.14,0,.27,0,.41-.01.27,0,.55,0,.82,0,.37,0,.74,0,1.11.02,11.69.34,21.67,6.01,26.92,15.96l-11.33,5.22c-1.03-1.83-2.3-3.48-3.78-4.9-.01-.01-.03-.03-.04-.04-3.47-3.34-8.03-5.39-13.03-5.47-.1,0-.2,0-.29,0h-.04c-.07,0-.13,0-.2,0-10.94.12-19.78,9.72-19.78,21.55s8.15,20.66,18.48,21.49c.24.02.48.04.72.04.26,0,.51.02.77.02.14,0,.27,0,.41,0,4.57-.1,8.9-2.03,12.13-5.26l26.89-26.89c5.36-5.36,12.57-7.77,19.61-7.27,5.84.42,11.56,2.84,15.99,7.27,4.45,4.45,6.89,10.18,7.31,16.02.46,6.43-1.53,13.01-5.96,18.18Z"/>
    </g>
  </g>
</svg>