<?xml version="1.0" encoding="UTF-8"?>
<svg id="Layer_2" data-name="Layer 2" xmlns="http://www.w3.org/2000/svg" viewBox="0 0 355.72 73.72">
  <defs>
    <style>
      .cls-1 {
        fill: #f39c12;
      }

      .cls-2 {
        fill: #2563eb;
      }
    </style>
  </defs>
  <g id="Layer_1-2" data-name="Layer 1">
    <g>
      <path class="cls-2" d="M138.47,17.63h17.78v13.33c2.93-12.25,18.1-17.24,29.49-10.95l-9.43,14.31c-6.5-5.53-19.19-.11-19.19,10.84v27.43h-18.65V17.63Z"/>
      <path class="cls-2" d="M181.73,45.27c0-19.19,14.53-28.73,29.92-28.73s27.21,9.65,28.94,25.69c.22,2.06.22,4.55,0,6.61h-42.17c1.19,6.4,7.05,10.3,13.23,10.41,5.2.11,9.87-1.95,12.25-5.85l13.01,6.61c-4.99,8.46-14.31,13.66-25.26,13.66-15.39,0-29.92-10.73-29.92-28.4ZM223.9,39.2c-1.52-5.2-6.72-8.56-12.25-8.56s-10.41,3.36-11.82,8.56h24.07Z"/>
      <path class="cls-1" d="M244.39,60.45l24.17-28.4h-24.28v-14.42h43.69v12.14l-23.96,28.29h24.17v14.53h-43.8v-12.14Z"/>
      <path class="cls-1" d="M291.87,45.38c0-18.32,11.17-29.05,25.8-28.84,8.56.11,17.78,4.66,20.27,13.77v-12.68h17.78v54.96h-17.67v-12.79c-2.38,8.35-10.95,13.77-19.4,13.88-15.61.22-26.78-12.47-26.78-28.29ZM323.42,59.04c7.59-.22,13.77-5.64,13.77-13.77,0-8.78-6.07-14.09-13.77-14.31-7.81-.11-13.88,5.31-13.88,14.31,0,8.35,6.18,13.88,13.88,13.77Z"/>
      <path class="cls-2" d="M124.49,63.75l-1.54,1.54c-10.72,10.72-27.94,11.18-39.2,1.29-.09-.08-.18-.16-.27-.24-.1-.09-.2-.18-.3-.27-.09-.09-.19-.18-.28-.27-.18-.17-.36-.34-.53-.52l-7.68-7.68,10.05-10.05,7.68,7.68c.09.09.18.18.27.26,5.68,5.43,14.68,5.38,20.23-.17.38-.38.73-.77,1.05-1.17,4.61-5.71,4.2-14.04-1.08-19.33-5.6-5.6-14.78-5.69-20.47,0l-29.32,29.32c-5.84,5.54-13.64,8.92-22.56,9.48-.22.01-.45.03-.67.04-.45.02-.9.04-1.35.04h-.01c-.22,0-.43,0-.65,0-.32,0-.65,0-.97-.01-.08,0-.17,0-.25,0-.12,0-.25,0-.37-.01-.35-.01-.71-.03-1.06-.05-.53-.03-1.05-.08-1.57-.13C16.72,71.8,2.41,59.9.27,41.95H.27c-.02-.15-.04-.31-.05-.46-.02-.15-.03-.31-.05-.46-.03-.31-.05-.62-.08-.93-.01-.16-.02-.31-.03-.47-.05-.91-.08-1.84-.07-2.78C.21,14.63,17.08.67,36.57.02c.16,0,.31,0,.47-.01.31,0,.63,0,.94,0,.42,0,.85,0,1.27.02,13.32.39,24.7,6.85,30.68,18.19l-12.91,5.95c-1.17-2.09-2.62-3.97-4.3-5.59-.01-.01-.03-.03-.04-.04-3.96-3.8-9.15-6.14-14.85-6.23-.11,0-.22,0-.34,0h-.05c-.08,0-.15,0-.23,0-12.47.13-22.54,11.08-22.54,24.56s9.29,23.55,21.07,24.49c.27.02.55.04.83.05.29.01.59.02.88.02.16,0,.31,0,.47,0,5.2-.11,10.14-2.31,13.82-5.99l30.65-30.65c6.1-6.1,14.33-8.86,22.36-8.29,6.66.47,13.17,3.24,18.22,8.29,5.08,5.08,7.85,11.6,8.33,18.26.52,7.33-1.74,14.82-6.79,20.72Z"/>
    </g>
  </g>
</svg>