<?xml version="1.0" encoding="UTF-8"?>
<svg id="Layer_2" data-name="Layer 2" xmlns="http://www.w3.org/2000/svg" viewBox="0 0 156.25 87.69">
  <defs>
    <style>
      .cls-1 {
        fill: #2563eb;
      }
    </style>
  </defs>
  <g id="Layer_1-2" data-name="Layer 1">
    <path class="cls-1" d="M148.09,75.84l-1.83,1.83c-12.75,12.75-33.23,13.3-46.64,1.54-.1-.1-.21-.19-.32-.28-.12-.11-.24-.22-.35-.32-.11-.1-.22-.21-.33-.32-.21-.2-.42-.41-.63-.61l-9.13-9.13,11.96-11.96,9.13,9.13c.11.11.21.21.32.31,6.75,6.45,17.47,6.4,24.07-.21.45-.45.87-.91,1.25-1.39,5.48-6.79,5-16.7-1.29-22.99-6.66-6.66-17.58-6.77-24.35,0l-34.88,34.88c-6.95,6.6-16.23,10.61-26.83,11.28-.27.02-.53.03-.8.05-.53.02-1.07.04-1.61.05h-.01c-.26,0-.51,0-.77,0-.39,0-.77,0-1.16-.01-.1,0-.2,0-.3,0-.15,0-.3,0-.45-.02-.42-.02-.84-.04-1.26-.06-.63-.04-1.25-.09-1.87-.15C19.89,85.41,2.87,71.25.33,49.91H.33c-.02-.18-.04-.37-.06-.55-.02-.18-.04-.37-.06-.55-.03-.37-.06-.73-.09-1.1-.01-.18-.02-.37-.04-.56-.06-1.09-.09-2.19-.08-3.31C.26,17.4,20.32.79,43.5.03c.19,0,.37,0,.56-.02.37,0,.74-.01,1.12-.01.5,0,1.01,0,1.51.02,15.84.47,29.38,8.15,36.5,21.64l-15.36,7.08c-1.39-2.48-3.12-4.72-5.12-6.65-.02-.02-.03-.03-.05-.05-4.71-4.52-10.89-7.31-17.67-7.41-.13,0-.27,0-.4,0h-.06c-.09,0-.18,0-.27,0-14.84.16-26.82,13.18-26.82,29.22s11.05,28.02,25.06,29.14c.33.03.65.05.98.06.35.01.7.02,1.05.02.19,0,.37,0,.56,0,6.19-.13,12.07-2.75,16.45-7.13l36.46-36.46c7.26-7.26,17.05-10.54,26.59-9.86,7.92.56,15.67,3.85,21.68,9.86,6.04,6.04,9.34,13.8,9.91,21.72.62,8.72-2.07,17.64-8.08,24.65Z"/>
  </g>
</svg>